<?xml version="1.0"?>

<!DOCTYPE svg PUBLIC '-//W3C//DTD SVG 1.0//EN' 'http://www.w3.org/TR/2001/REC-SVG-20010904/DTD/svg10.dtd'>
<svg fill-opacity="1" xmlns:xlink="http://www.w3.org/1999/xlink" color-rendering="auto" color-interpolation="auto" text-rendering="auto" stroke="black" stroke-linecap="square" stroke-miterlimit="10" shape-rendering="auto" stroke-opacity="1" fill="black" stroke-dasharray="none" font-weight="normal" stroke-width="1" xmlns="http://www.w3.org/2000/svg" font-family="&apos;Dialog&apos;" font-style="normal" stroke-linejoin="miter" font-size="12" stroke-dashoffset="0" image-rendering="auto" width="400" height="400" viewBox="-20 50 400 400">
  <!--Unicode Character 'WAVING HAND SIGN' (U+1F44B)-->
  <defs id="genericDefs" />
  <g>
    <g>
      <path d="M199.4062 198.2812 Q198.5625 198.4219 192.5156 199.6875 Q190.8281 191.5312 186.1875 175.7812 Q185.625 174.2344 175.7812 157.0781 L184.3594 157.0781 Q190.2656 167.9062 199.4062 198.2812 ZM181.8281 214.875 L175.9219 217.6875 Q173.1094 212.9062 167.625 203.4844 Q159.0469 189 140.4844 165.9375 L144.7031 161.8594 Q156.7969 170.7188 160.5938 173.9531 Q168.1875 180.8438 172.8281 189.7031 Q175.7812 198.1406 181.8281 214.875 ZM241.3125 236.3906 Q241.3125 239.0625 239.625 243.9844 Q237.6562 249.4688 237.5156 251.8594 Q237.375 253.6875 237.375 257.7656 Q237.375 261.9844 237.7969 270.4219 Q238.2188 278.8594 238.2188 283.0781 L238.2188 300.7969 Q238.2188 328.0781 229.6406 350.4375 Q225.4219 361.5469 213.0469 376.3125 Q202.0781 389.5312 191.1094 398.3906 Q187.4531 400.3594 180.4219 404.4375 Q157.6406 417.9375 130.6406 417.9375 Q125.8594 417.9375 116.5781 415.9688 Q106.7344 413.8594 103.2188 411.75 Q101.9531 411.0469 96.8906 405.9844 Q91.8281 400.9219 82.125 390.0938 Q75.2344 381.2344 62.0156 357.6094 Q32.7656 305.4375 15.1875 268.1719 Q14.3438 266.3438 12.9375 255.7969 Q11.5312 245.6719 11.5312 242.5781 Q11.5312 240.0469 13.7812 234.6406 Q16.0312 229.2188 17.8594 227.9531 Q18.2812 227.6719 22.5 226.125 L18.5625 206.8594 Q19.9688 201.0938 23.625 192.2344 Q26.2969 190.5469 31.6406 187.0312 L31.6406 185.7656 Q31.6406 183.9375 31.2812 180.4219 Q30.9375 176.9062 30.9375 175.0781 Q30.9375 165.6562 40.6406 159.3281 Q46.9688 155.25 51.3281 155.25 Q56.6719 155.25 69.4688 160.875 Q71.5781 158.4844 76.7812 154.5469 Q79.3125 153.2812 84.6562 153.2812 Q85.6406 153.2812 89.0156 153.4219 Q91.9688 153.5625 98.8594 157.3594 Q105.0469 160.875 107.8594 163.4062 Q109.2656 164.6719 113.0625 170.7188 Q126.8438 193.2188 140.7656 215.7188 Q157.2188 242.2969 170.0156 259.5938 Q171.5625 261.7031 188.2969 277.1719 Q190.2656 274.2188 190.2656 272.5312 Q190.2656 270.8438 189.3438 267.5469 Q188.4375 264.2344 188.4375 262.5469 Q188.4375 261.7031 188.7812 259.9531 Q189.1406 258.1875 189.1406 257.3438 Q189.1406 246.9375 193.2188 236.5312 Q197.8594 224.7188 205.7344 220.0781 Q211.7812 216.4219 217.2656 216.4219 Q228.2344 216.4219 230.4844 217.4062 Q231.6094 217.9688 234.2812 221.3438 Q241.3125 230.4844 241.3125 236.3906 ZM50.2031 363.2344 Q45 366.0469 44.2969 366.0469 Q44.0156 366.0469 40.0781 361.5469 Q34.875 355.5 29.5312 349.5938 Q23.7656 342.4219 21.375 335.9531 Q20.3906 330.8906 18.1406 320.7656 Q20.3906 320.2031 25.0312 319.3594 Q27.7031 326.5312 34.0312 340.1719 Q34.5938 341.1562 50.2031 363.2344 ZM43.5938 381.0938 Q42.75 382.6406 40.7812 384.4688 Q34.3125 382.6406 22.2188 377.2969 Q14.2031 372.2344 14.2031 368.2969 Q14.2031 368.1562 15.6094 359.4375 Q27.9844 372.9375 43.5938 381.0938 ZM115.875 265.9219 Q100.5469 236.25 74.9531 195.75 Q70.1719 187.5938 58.6406 172.4062 Q55.6875 169.3125 55.125 169.3125 Q44.5781 169.3125 44.5781 182.6719 Q44.5781 185.9062 47.0312 188.2969 Q49.5 190.6875 51.8906 192.9375 Q54 195.6094 67.3594 215.1562 Q74.3906 225.4219 87.6094 246.2344 Q92.25 253.9688 98.1562 265.0781 Q99.5625 268.0312 102.7969 273.5156 Q103.2188 274.0781 104.2031 274.0781 L115.875 265.9219 ZM230.7656 230.0625 Q221.9062 227.8125 219.5156 227.8125 Q216.7031 227.8125 207.9844 235.4062 Q205.7344 239.0625 202.2188 246.9375 Q199.9688 254.25 199.9688 268.3125 Q199.9688 270.1406 200.8125 273.5156 Q201.6562 276.8906 201.6562 278.7188 L201.6562 293.0625 Q197.8594 296.1562 192.9375 296.1562 Q192.7969 296.1562 192.375 296.0156 Q163.8281 274.3594 151.5938 256.5 Q142.3125 242.8594 126.8438 217.2656 Q110.25 189.5625 102.5156 177.75 Q101.3906 176.0625 93.7969 167.7656 Q87.0469 167.0625 87.4688 167.0625 Q83.25 167.0625 77.625 172.9688 Q84.2344 183.0938 96.75 203.9062 Q104.9062 219.7969 121.9219 251.0156 Q127.8281 261.2812 129.2344 261.2812 Q130.6406 261.2812 133.5156 260.8594 Q136.4062 260.4375 137.8125 260.4375 Q138.6562 260.4375 140.4844 261.8438 Q142.3125 263.25 142.3125 264.0938 Q142.3125 265.7812 141.4688 267.3281 Q135.1406 268.875 123.0469 273.375 Q96.75 286.7344 79.875 314.5781 Q77.9062 319.5 73.6875 329.4844 Q71.8594 328.6406 68.3438 326.5312 Q68.2031 325.2656 68.2031 324.4219 Q68.2031 318.0938 70.5938 311.7656 Q74.1094 302.4844 74.1094 303.75 Q74.1094 301.7812 54.0625 271.125 Q34.0312 240.4688 30.7969 237.7969 Q29.9531 237.0938 28.2656 237.0938 Q23.4844 237.0938 23.4844 247.3594 Q23.4844 253.6875 24.4688 256.7812 Q26.4375 263.25 37.9688 286.875 Q51.1875 314.0156 67.7812 342.5625 Q73.5469 352.6875 79.1719 362.6719 Q86.0625 374.3438 92.25 381.7969 Q105.6094 397.6875 122.2031 403.1719 Q125.5781 404.2969 126.4219 404.2969 Q140.3438 404.2969 155.25 399.7969 Q156.0938 399.5156 162.8438 396.1406 Q166.9219 394.5938 174.7969 390.5156 Q194.9062 376.4531 203.9062 361.9688 Q208.5469 356.7656 216 345.2344 Q227.6719 318.5156 227.6719 285.0469 Q227.6719 282.9375 227.25 278.7969 Q226.8281 274.6406 226.8281 272.5312 L226.8281 257.0625 Q226.8281 252.5625 228.7969 243.6406 Q230.7656 234.7031 230.7656 230.0625 ZM93.375 282.375 Q93.375 283.9219 65.5312 235.8281 Q61.4531 228.9375 53.4375 215.1562 Q52.0312 212.2031 48.7969 206.7188 Q43.7344 200.1094 41.0625 200.1094 Q39.375 200.1094 33.1875 201.6562 Q29.5312 210.7969 29.5312 211.7812 Q29.5312 215.8594 38.3906 227.8125 Q44.4375 235.6875 50.625 243.5625 Q61.3125 259.875 83.1094 292.0781 Q93.375 283.2188 93.375 282.375 ZM165.6562 359.1562 Q165.6562 360.1406 161.0156 366.0469 Q156.7969 362.3906 152.5781 358.7344 Q147.6562 354.375 145.9688 350.0156 Q143.4375 343.5469 143.4375 328.0781 Q143.4375 320.0625 145.2656 313.7344 Q147.6562 307.125 149.9062 300.5156 Q153.2812 302.0625 160.3125 305.0156 Q159.0469 309.7969 156.7969 319.2188 Q156.2344 321.8906 156.2344 337.6406 Q156.2344 343.6875 157.3594 346.7812 Q157.9219 348.1875 161.7812 353.6094 Q165.6562 359.0156 165.6562 359.1562 Z" stroke="none" />
    </g>
  </g>
</svg>
